<?xml version="1.0" encoding="utf-8"?>
<!-- Generator: Adobe Illustrator 19.0.0, SVG Export Plug-In . SVG Version: 6.00 Build 0)  -->
<svg version="1.1" id="Layer_1" xmlns="http://www.w3.org/2000/svg" xmlns:xlink="http://www.w3.org/1999/xlink" x="0px" y="0px"
	 viewBox="0 0 841.9 295.7" style="enable-background:new 0 0 841.9 295.7;" xml:space="preserve">
<style type="text/css">
	.st0{fill:#FFFFFF;}
</style>
<g>
	<g>
		<g>
			<path class="st0" d="M102.9,112.5c2.9,0,5.7,0,5.7,3.1c3.1,2.8,0,8.8,0,11.6c-2.8,6.2-5.7,15.1-11.9,12c-2.8-2.8,0-8.9,0-14.8
				c-2.8-2.9-9-6-14.8-6c-3.1,6-3.1,20.8,0,27c5.9,11.7,22.9,15.2,31,29.5c1.4,2.4,2.9,4.8,5.7,10.6c3.1,6,4.5,13.4,4.5,19.6
				c0,11.7-1.8,18.3-5.6,26.6c-4.5,9.8-11.7,14.8-23.6,17.8H82c-5.9,0-15-8.8-17.8-11.9c-3.1-5.9-6.2-14.8-3.1-26.7
				c-3.1,0-3.1,3.1-5.9,3.1c-3.1-3.1-3.1-6.2-3.1-9c8.9-3.1,15.2-2.5,23.9-6.2c5.9,0,8.9,6.2,5.9,12c-3.1,0-5.9,0-9,3.1
				c-6,5.7-2.9,23.6,5.9,26.7c3.1,0,3.1-3.1,6.2-3.1c17.9-8.9,23.6-32.6,17.9-56.5c-3.1-5.9-6.2-8.9-12-12c-6-2.9-9.1-6-12-9
				c-2.8-2.9-5.3-2.8-9.9-7.6c-4.6-4.8-10.9-10.2-10.9-16.1c-2.8-9.2,3.1-18,8.9-23.9c3.1,0,6-3.1,11.9-3.1c6.2,0,8.3,1.7,15.1,3.1
				c0,0,2.8,3.1,5.9,3.1C99.9,115.6,99.9,112.5,102.9,112.5z"/>
			<path class="st0" d="M180.6,150c-2.8,5.7-5.7,11.3-8.5,16.9c0,2.9,0,2.9,2.8,2.9c2.9,2.8,8.4,5.6,11.3,8.4
				c8.5,11.3,8.5,28.4,11.3,42.5c0,5.7-2.8,11.2,0,14.1c0,2.8,6.4,5.3,6.4,8.3c0,2.7-2,5.4-2,5.4c-8.5,0-20.4,0.4-26,0.4
				c-2.8-2.9-1.1-5.6-1.1-5.6l5.7-5.7c2.7-5.7,0-11.2,0-16.9v-17.1v-2.8c0-8.4-2.8-19.9-8.5-22.7c-5.7-2.8-11.3-2.8-17.1,0
				c-5.7,5.7-2.8,22.7-2.8,33.8c0,5.7-2.9,8.7-2.9,14.4v11.2c5.7,2.8,8.7,8.4,2.9,11.3c-8.4-2.9-14.1,2.8-22.5,0
				c-2.9-2.9-2.9-2.9-2.9-5.6c2.9-2.9,5.6-2.9,5.6-5.7v-14.1c0-5.7,0-14.1,0-22.7c0,0,0.3-0.1,0.3-3.1l-0.3-2.7
				c0-2.7,2.9-8.4,2.9-14.1c0-16.9,0-36.6-2.9-50.9v-8.4c-2.7,0-5.6,0-5.6-2.9c-2.8,0-2.2-6.2-0.3-8.1c2-2,5.3-0.3,11-0.3
				c5.7,0,20.4-2.8,20.4,5.6c0,2.8-2.9,2.8-5.7,5.7c0,11.2,2.8,19.9,2.8,31c0,2.9-2.8,8.5,0,11.3c11.3-2.8,17.1-14.1,19.9-25.5
				c0-5.7,2.9-11.2,2.9-16.9H172c0-2.9-2.9-2.9-2.9-5.7c2.9-5.6,11.5-2.8,17.1-5.6c8.5,2.8,5.6,11.3,0,11.3
				C186.2,132.9,183.2,141.6,180.6,150z"/>
			<path class="st0" d="M268,244.8c-18.6,11.9-38.7,1.5-45.6-11.5c-2.7-5-5.7-11.5-8.7-20.1c-2.8-11.2-2.8-22.7-2.8-34.1
				c0-5.7-1.3-9.5,0-17.2c0.7-3.9,1.5-8,1.5-10.9c1.4-6,1.3-12,4.2-14.8c8.5-11.3,14.3-28.5,34.4-25.6c11.2,0,16.9,2.8,22.7,11.5
				c8.7,5.7,15.2,18.7,16.6,33.4c0.6,5.7,0.6,8.7,0.6,15.1c0,8.5,0.4,18.9-2.4,30.3c-2.9,14.1-7,25-12.7,35.4
				C273.9,239.8,270.5,243.3,268,244.8z M270.9,210.5c2.8-8.5,2.8-17.2,2.8-25.7c0-5.7,1-9,1-14.5c0-5.7-1-11.2-1-16.9
				c-2.8-5.7-2.8-11.5-5.7-17.2c-2.8-5.7-5.3-13.7-11-16.5c-5.5,0-5.9-0.6-11.6-0.6c-5.7,5.7-8.7,11.3-11.5,19.9
				c-2.9,5.7-2.9,11.5-2.9,17.2c-2.8,22.9,0,45.9,2.9,62.8c2.8,5.7,2.8,11.5,5.7,14.4c2.8,0,1.3,2.5,3.2,4.5
				c4.3,4.3,18.5,1.8,20.6-3.5C265.6,228.7,269.4,217.4,270.9,210.5z"/>
			<path class="st0" d="M370.7,110.7c2.9,2.9,5.6,5.6,2.9,11.2H368c-2.8,5.5-2.9,11.2-5,19.2c-10.1,37.3-14.3,71.2-25,104.2
				c-5.6,8.3-8.3-2.8-11.1-11c-2.7-5.3-2.7-10.9-2.7-13.7c-2.9-10.9-5.6-22-8.3-32.9c-5.6-16.4-7.5-34.1-10.2-49.4
				c-1-5.5-2.2-12.9-2.2-15.5c0-2.7-3.6-1.7-6.6-1.7c0-2.7-0.7-5.4-0.7-8.1c0-2.7,5-1.7,7.7-1.7c5.5,0,14.1,0,20.3-0.4
				c8.5-0.6,5.5,13.7-2.9,13.7c0,11.1,2.9,24.8,5.6,38.3c2.8,16.6,5.5,33,11.1,46.7c0.4-4.2,5.3-17.1,5.3-22
				c4.5-19.6,11-37.2,13.7-60.3c0-2.8,2.9-2.8,0-5.5c-2.7-2.9-8.3-2.9-8.3-8.2c0,0,2.9,0,2.9-2.9
				C356.9,113.6,365.2,110.7,370.7,110.7z"/>
			<path class="st0" d="M436.3,244.8c-18.6,11.9-38.7,1.5-45.6-11.5c-2.7-5-5.7-11.5-8.7-20.1c-2.8-11.2-2.8-22.7-2.8-34.1
				c0-5.7-1.3-9.5,0-17.2c0.7-3.9,1.5-8,1.5-10.9c1.4-6,1.3-12,4.2-14.8c8.5-11.3,14.3-28.5,34.4-25.6c11.2,0,16.9,2.8,22.7,11.5
				c8.7,5.7,15.2,18.7,16.6,33.4c0.6,5.7,0.6,8.7,0.6,15.1c0,8.5,0.4,18.9-2.4,30.3c-2.9,14.1-7,25-12.7,35.4
				C442.1,239.8,438.8,243.3,436.3,244.8z M439.2,210.5c2.8-8.5,2.8-17.2,2.8-25.7c0-5.7,1-9,1-14.5c0-5.7-1-11.2-1-16.9
				c-2.8-5.7-2.8-11.5-5.7-17.2c-2.8-5.7-5.3-13.7-11.1-16.5c-5.5,0-5.9-0.6-11.6-0.6c-5.7,5.7-8.7,11.3-11.5,19.9
				c-2.9,5.7-2.9,11.5-2.9,17.2c-2.8,22.9,0,45.9,2.9,62.8c2.8,5.7,2.8,11.5,5.7,14.4c2.8,0,1.3,2.5,3.2,4.5
				c4.3,4.3,18.5,1.8,20.6-3.5C433.9,228.7,437.7,217.4,439.2,210.5z"/>
			<path class="st0" d="M535.8,239.9c3.1,0,5.9,0,5.9,2.9c0,8.9-12.3,6.9-20.8,5.9c-6.2-5.9,2.4-10.5-0.7-28.7
				c-1.8-11.3,1.1-24.1-5.9-34.3c-2.2-3.2-2.8-4.9-5.9-8c0-3.1-3.1-3.1-6-5.9c-3.1,0-5.9,0-5.9,2.8c-3.1,15.1,0,33.1,0,45
				c0,6.2,0,12,2.8,18.2c0,2.9,6,2.9,6,5.7c0,3.1,0.4,5.3-2.5,5.3c-5.9,0-18.6-2.2-24.3,0.8c-6.2,0-8.9,0-12-6.2
				c3.1-2.8,5.9-2.8,8.9-2.8v-51c0-5.9,3.1-12,0-17.9c0-3.1,0.7-3.6,1-7.8c0.8-12.7-1-22.1-1-37.2c-5.9,0-10.9-1.3-10.9-4.3
				c0-8.8,3.9-8.9,13-8.9c2.9,0,3.9-1.7,6.7-1.7c18.2-3.1,43.9-2.4,48.1,15c1.4,5.7,3.4,15.8,0,23.9c-1.7,4.1-6,9.2-8.8,12l-3.1,3.1
				c0,2.9,3.1,2.9,3.1,6C535.4,187,532.8,218.8,535.8,239.9z M494.9,158.1c0.1,4.1,13.6-1.1,16.6-4.2c0-3.1,2.1-7.8,2.8-11.9
				c1.1-6.7,0-6.2,0-12c0-4.2-2.8-6.2-5.9-9.1c-3.1,0-11.9,0.3-14.7,0.3C493.7,133.2,494.2,143.5,494.9,158.1z"/>
			<path class="st0" d="M605.2,244.8c-18.6,11.9-38.7,1.5-45.6-11.5c-2.7-5-5.7-11.5-8.7-20.1c-2.8-11.2-2.8-22.7-2.8-34.1
				c0-5.7-1.3-9.5,0-17.2c0.7-3.9,1.5-8,1.5-10.9c1.4-6,1.3-12,4.2-14.8c8.5-11.3,14.3-28.5,34.4-25.6c11.2,0,16.9,2.8,22.7,11.5
				c8.7,5.7,15.2,18.7,16.6,33.4c0.6,5.7,0.6,8.7,0.6,15.1c0,8.5,0.4,18.9-2.4,30.3c-2.9,14.1-7,25-12.7,35.4
				C611.1,239.8,607.7,243.3,605.2,244.8z M608.2,210.5c2.8-8.5,2.8-17.2,2.8-25.7c0-5.7,1-9,1-14.5c0-5.7-1-11.2-1-16.9
				c-2.8-5.7-2.8-11.5-5.7-17.2c-2.8-5.7-5.3-13.7-11-16.5c-5.5,0-5.9-0.6-11.6-0.6c-5.7,5.7-8.7,11.3-11.5,19.9
				c-2.9,5.7-2.9,11.5-2.9,17.2c-2.8,22.9,0,45.9,2.9,62.8c2.8,5.7,2.8,11.5,5.7,14.4c2.8,0,1.3,2.5,3.2,4.5
				c4.3,4.3,18.5,1.8,20.6-3.5C602.8,228.7,606.6,217.4,608.2,210.5z"/>
			<path class="st0" d="M643.1,240.9c3.1,0,3.1-2.8,6-2.8v-32.9c0-14.8-2.9-26.7-2.9-35.7c0-11.8,0-23.8-3.1-32.6v-12
				c-5.7,0-11.7,6-11.7-3.1c0-2.8,2.9-2.8,6-5.7l2.9-3.1c5.9-2.9,11.9-2.9,17.9-2.9c5.7,0,7.8-1,15.1,0.1c0,0,1.4-0.7,2.7-0.1
				c3.1,2.9,8.8,6,11.9,9c6,2.8,9.1,9,11.9,14.8c4.1,8.4,7.3,15.4,8.8,27c1.3,9.8,3.1,20.6,0,32.4c0,17.9-11.7,32.7-20.7,44.8
				c-6,2.8-11.9,8.8-23.9,8.8h-5.7c-6,2.9-15.1,2.9-20.8,2.9c-3.1-2.9-6-6-6-8.9H643.1z M662.2,133.9c0,8.8,0.7,14.8,0.7,20.8
				c0,6.6,1.1,11.9,1.1,20.8v29.7c0,6,3.1,12,3.1,17.8c0,6-3.1,9.1,0,12c2.9,0,6-2.9,8.9-2.9c0-3.1,3.1-3.1,3.1-3.1
				c2.8,0,2.8-2.9,2.8-2.9c6-8.8,6-20.8,6-32.7c0-6,2.9-14.8,0-23.8v-8.9c-3.1-14.8-3.1-29.7-11.9-38.7c-2.9-2.8-6-2.8-12-2.8
				C661.2,121.9,662.2,129.8,662.2,133.9z"/>
			<path class="st0" d="M768.2,184.9c-5.6,0-14.5-2.9-23.2-2.9c-3.1,2.9-3.1,8.8-3.1,15.1c-3.2,11.7-3.2,26-3.2,41.3
				c3.2,2.7,6.3,0,8.9,2.7c0,3.1-0.4,5.9-0.4,5.9c-8.9,6.1-17.3-0.1-25.9,3.1l-6.2-5.9c2.8-3.1,6.2-5.7,8.8-5.7c3.1,0,3.1-2.9,3.1-6
				c2.8-17.9,5.7-44.2,8.7-65c0-8.8,2.9-17.5,6.2-23.5c3.1-11.9,8.7-20.8,14.5-29.5c0,0,6.2-6.3,11.7-3.1
				c6.3,3.1,12.3,14.7,12.3,20.7c2.8,5.6,3.9,11,4.5,15.8c2.8,23.2,4.2,49.4,6.9,75.7v17.9c0,2.7,6.2,5.9,0,8.8l-3.6-0.8
				c-5.9,0-10.9,0.8-16.9,0.8c-3.1,0.3-7.8,1.5-7.8-1.1c0-3.1,4.8-10.8,7.8-10.8C771.2,220.3,771.2,199.8,768.2,184.9z M747.6,158.5
				c0,2.7-2.7,11.6-2.7,15c8.7,2.7,17.6,2.7,23.2,2.7v-17.6c0-8.7-2.5-21-5.6-29.7c0,0,0-2.9-3.1-2.9l-3.1,2.9
				C753.6,137.5,750.5,146.8,747.6,158.5z"/>
		</g>
		<g>
			<g>
				<path class="st0" d="M270.5,56.8c0.4,0,1.9-1.3,2.3-0.6c1.5,2.2-3.1,5.3-5.4,6.1c-2,0.6-1.2-3-5.4-6.4c-2.6-2.1-3.9-5.9-8.2-6.2
					c-1.4-0.1-2.8,0.2-3.5,0c-0.4-0.2-2.2,0-3.2,0.6c-0.9,0.5-1.9,1.9-1.5,2.5c2.2,3.2,6.6,7,9,9.6c1.2,1.3,3.2,2.3,4.5,3.1
					c0.5,0.3,2.3-1,2.9-0.3c0.6,0.7,1.1,1.1,0.3,1.8c-1.7,1.5-5.5,5.1-6.5,6.8c-1,1.7-4.2,2.8-4.5,2.4c-0.3-0.3,0.9-2.3,1.7-3.3
					c-4.4-4-6.6-6-11.1-10c-1.3-1.2-2.5-3-3.9-3.5c-0.5-0.2-0.6-1-1.4-1.9c-2.5-2.8-7.4-7-8.4-6.9c-0.9,0-4.1,4.2-4.8,3.6
					c-2-1.6-0.7-3.4,2.7-7c1.1-1.2,1.2-1.9,2.1-3c6.2-7.1,17.2-16.1,21.8-13.2c1.6,0.9,4,2.8,4.1,5.7c0,1.4-0.7,3.9-1.3,5.3
					c-0.2,0.6-0.4,1-0.6,1.6c0.5,0.7,1.8,0.3,2.2,0.5C258.1,45.7,268.5,56.6,270.5,56.8z M241.6,49.7c0.9,0.8,5.3-5.5,5.2-6.3
					c-0.1-0.4-0.7-2.4-1.2-3.5c-0.8-1.9-1.1-1.4-2.2-2.7c-0.8-0.9-2.8-0.7-4,0c-1.1,0.5-5.6,4.9-5.6,5.3
					C233.7,43.3,238.5,46.8,241.6,49.7z"/>
				<path class="st0" d="M296.9,26.6c-0.9-0.3-7.6,0.7-9.8,2.4c-0.9,0.7,0.1,3.1,0.4,4.6c0.6,2.9,1.6,10.2,3.3,11.7
					c0.6,0.5,2.9-1,3.4-0.5c0.4,0.3,0.5,1.7,0.5,1.7c-2.5,2.8-6,2.3-8.4,4.5c-1.1-0.2-1.7-0.3-2.8-0.5c0.5-1.3,1.3-2.5,2.2-3
					c1-0.5,0.6-1.3,0.3-2.1c-1.5-4.5-2.7-13.5-4.3-18.8c-0.7-2.2-0.3-5.5,0-7.4c0.6-3.1,1.7-7.2,3.7-10.5c0,0,2.5-2.7,5.4-2.6
					c3.2,0.1,6.8,3.3,7.5,4.3c0.8,1.2,2.6,2.7,3.1,4c2.8,6.3,5,13.7,7.5,21c0.4,2.1,0.6,3.1,1,5.1c0.2,0.8,2.5,1.2,0.5,2.5
					c-0.5,0-0.8,0-1.3,0c-2.1,0.4-3.9,1.1-5.9,1.7c-1,0.3-2.6,1.2-2.8,0.5c-0.3-0.9,1.8-3.6,1.9-3.8
					C303.1,39.9,298.4,27.2,296.9,26.6z M285.8,22.1c0.1,0.6,0.1,4.3,0.4,4.5c1.3,0.7,7.6-1.8,10-2.5c-0.6-2-0.9-2.9-1.4-4.9
					c-0.7-2.4-2.8-5.6-5-7.5c0,0-0.3-0.8-1.7-0.4c-0.5,0.5-0.7,0.8-1.2,1.3C286.3,15.4,285.3,19.2,285.8,22.1z"/>
				<path class="st0" d="M327.9,38.2c1.1,0,1.1-0.8,2.2-0.8c0-3.8,0-5.8,0-9.6c0-4.3-1.3-7.8-1.4-10.4c0-3.4-0.1-6.9-1.6-9.5
					c0-1.4-0.1-2.1-0.1-3.5c-2.8,0.1-5.6,2-5.8-0.6c-0.1-0.8,1.4-0.9,2.9-1.8c0.6-0.4,0.9-0.6,1.4-1c2.9-1,6-1,9-0.9
					c2.9,0.1,4-0.2,7.6,0.4c0,0,0.8-0.2,1.3,0.1c1.4,0.7,4.3,2.5,5.6,3.3c2.4,1.4,4,3.2,5.1,5.1c1.5,2.7,2.6,5.1,2.6,8.5
					c0,2.9-0.8,6.4-1.9,9.3c-1.6,4-6.9,9.9-10.3,11.5c-1.7,0.8-4.6,2-9,1.8c-0.8,0-1.2,0-2.1-0.1c-2.2,0.8-6.2,1.3-7.5,0.9
					c-0.9-0.3-2.3-1.6-2.3-2.5C325.3,38.3,326.1,38.2,327.9,38.2z M336.2,7c-0.1,2.6,0.1,4.3,0.1,6.1c-0.1,1.9,0.3,3.5,0.2,6.1
					c-0.2,3.5-0.3,5.2-0.4,8.6c-0.1,1.8,1,3.6,1,5.2c-0.1,1.8-1.1,3.1-0.2,3.5c0.7,0.3,3.2-0.4,3.4-0.6c0.2-0.2,1.2-0.8,1.2-0.8
					c1.1,0.1,1.2-0.7,1.2-0.7c2.6-2.3,3.1-5.8,3.6-9.2c0.2-1.7,1.9-4.1,0.9-6.9c0.1-1,0.2-1.5,0.3-2.6c-0.8-4.5-0.3-9-4.3-11.9
					c-1.3-0.9-3.7-1.7-5.9-1.2C336.1,3,336.2,5.9,336.2,7z"/>
				<path class="st0" d="M385.8,22.5c-3.9,7.5-12.4,18.9-12.2,24c0,0.8,2.2,2.1,2.2,2.8c0,0.5-2,0.9-2.6,0.7
					c-1.1-0.3-5.8-2.5-8.5-4.3c0,0,0-1.1,0.5-1.5c0.3-0.3,1,0.3,2.3-0.1c1.3-0.4,0.9-2.3,1.2-3.1c0.9-2.4,1.8-4.5,2.7-6.8
					c0,0,0.2-1.1,0.5-1.9c1.1-2.8,1.6-4.2,2.7-7.1c1.5-3.9,5.5-12.3,5-13.4c-0.2-0.4-2.6-0.9-2.3-1.7c0.2-0.6,0.3-0.9,0.6-1.6
					c0.3-0.8,1.4,0.5,4.1,1.5c2.8,1.1,9,2.7,10.7,4.7c1,1.1-2.3,1-3.6,1.1C387.5,15.8,387,20.3,385.8,22.5z"/>
				<path class="st0" d="M404.1,70c-7.5-2.8-11.4-9.5-11.4-14.2c0-1.8,0-4.2,0.5-6.8c0.6-3.2,2.7-6.2,4.5-9c0.9-1.4,1-2.7,2.7-4.2
					c0.9-0.8,1.9-1.7,2.4-2.3c1.1-1.1,2.6-2.5,4.1-2.4c5,0.1,11.1-2.2,18.5,5.1c4.1,4,5.5,7.6,6.3,10.8c1,4,1.2,9.6-1.6,12.9
					c-1.1,1.3-1.8,1.8-3.2,3c-1.9,1.6-4.2,3.6-7.5,4.8c-3.9,1.5-7.5,2.4-11.3,2.8C406.8,70.6,405.1,70.4,404.1,70z M412.1,63.9
					c2.4-1,4.5-2.6,6.3-4.3c1.2-1.2,2.2-1.5,3.4-2.6c1.2-1.1,2.8-2.7,3.3-3.7c0.6-1.3,1.4-3.4,1.6-5.6c0.2-2.2,1-5.4-0.8-7.5
					c-1.6-1.9-2.4-3.2-4.4-4.2c-2.3-1.1-5.7,0-8.2,0.8c-1.9,0.6-3.2,2-4.2,3.1c-4.2,4.5-9.2,11.3-10.2,15.3
					c-0.4,1.6-1.3,3.9-0.8,4.7c0.4,0.6-0.1,0.9,0.1,1.8c0.5,2.1,5.1,5.3,6.7,4.7C406.8,66,410.3,64.6,412.1,63.9z"/>
			</g>
		</g>
		<g>
			<g>
				<path class="st0" d="M707.6,65.8l4.5,0.4C712.1,66,710.9,65.8,707.6,65.8z"/>
			</g>
			<g>
				<path class="st0" d="M4.8,261.4c-0.1-0.4-0.3-0.9-0.4-1.2C4.7,261.1,4.8,261.4,4.8,261.4z"/>
			</g>
			<g>
				<path class="st0" d="M819.6,139.3c0-0.1,0-0.2,0-0.2c0-0.4-0.1-0.8-0.1-1.2L819.6,139.3z"/>
			</g>
			<g>
				<path class="st0" d="M653.1,81c30.1,0,49.1,0.6,68.4,0.9c19.3,0.4,38.9,0.8,70,0.3c3.5,0,6.8,0.1,9.6,0.6
					c2.8,0.4,5.1,1.2,5.9,1.8c4.1,3,7,7.5,9.1,13.3c2,5.8,3,12.6,3.4,19.6c0.4,7,0.3,14.2,0.2,21.6c0.4,3.5,0.5,7.8,0.8,12.5
					c0.3,4.5,0.6,9.3,0.8,14.3c0.5,9.9,0.9,20.1,2.1,28.2l-0.7,6.4c0.8,5.6,1.3,12.1,1,17.7l-0.3-0.3c1.1,8.3,1,17.7,1.6,21.8
					l-0.3-0.3l0.5,10.1l-0.5-1.7c0.1,1.7,0.4,3.9,0.4,5.3c-0.1,1.3,0,2.7-0.1,4c-0.4,1.1-0.4,2.5-0.9,3.5c-0.6,1-0.7,2.2-1.6,3
					c-2.5,3.6-7.3,6.1-12.7,7.3l1.2,0.9c-11.9,2.4-21.4,2-30.3,1.7c-4.5-0.2-8.7-0.7-14.2-1c-5.3-0.4-11-1-17.5-1.3l0.4-0.3
					c-8.4,0.7-15.6,1.2-22.4,1.4c-6.8,0-12.9-0.2-19.4-0.5c-13-0.7-26.1-1.5-42.9-0.3c4.2-0.3-1.8-0.6-1.4-0.9
					c-15.4,0.1-31.9-0.1-32.2,2.5c-11.3,0.3-9.2-0.5-10.7-1.3c0.1,1-9.7,1.7-18.5,2l4-0.5l-25.2,1l5,1.8c-13.4-0.2-3.5-2.4-16.3-1.4
					l0.2,1.6c-18.4,0.6-29.3-1.3-47.2-1.6c-74,1.2-153.3,7.9-222.3,4.1l-3-1.2c-1.3-1.8-19,2.5-21.6,0.9l-8,0.8c-2.3-0.3-7-0.7-3-1
					c-7.4-0.1-7.6,0.2-12.9,0.7l-7.9-1.1c-29.3-0.9-54,0.2-84.9-0.6c-9.3-0.7-20.6-1.2-33-1.5c-12.4-0.5-26,0.1-39.3,0.2
					c-13.3,0.2-26.6,0-38.7-1.4c-3-0.5-6-0.8-8.8-1.3c-2.8-0.6-5.6-1.2-8.2-1.8c-4.9-1.2-8.4-3-10.5-5.6c-3.3-3.3-4.3-9.6-4.5-16.5
					c-0.1-3.5,0-7.1,0-10.9c0-3.8-0.1-7.8-0.2-11.5c-0.6-15.1-1-30.2,0.2-44.8c0.9-7.6,1.8-15.2,2.6-22.8c0.6-4.1,0.6-7.9,0.8-11.8
					c0.1-3.8,0.2-7.7,0.3-11.5c0.1-3.7,0.1-7.5,0.2-11.2c0.2-3.6,0.3-7.2,0.5-10.8c0.3-7.1,0.9-13.7,3-18.2c0.7-1.2,2.2-3.6,2.1-3.8
					c0,0,0.3-0.4,1.1-0.9c0.7-0.5,1.8-1.3,3.5-1.9c3.3-1.3,9-2.2,15.3-2.3c13.1-0.1,26.1-0.2,26.1-0.2s16-0.3,37-0.6
					c5.2-0.1,10.8-0.2,16.5-0.4c2.8-0.1,5.7-0.1,8.6-0.2c2.9-0.1,5.9-0.2,8.5-0.1c10.8,0.1,22.2,1.8,32.4,2.4
					c5,0.4,9.9,0.4,14.1,0.3c4.3-0.4,7.9-0.6,10.8-1.3c5.8-1.4,8.2-2.7,6.3-3.3c-1.9-0.9-8.1-0.5-19.5-2.3
					c-5.7-0.9-12.7-2.4-21.3-4.3c-4.3-0.9-9.1-2-14.4-2.8c-5.2-0.9-11.4-1.5-17.3-1.8l1.3-0.4C105.2,70.8,87,70.8,67.1,73
					c-1.6-1.2-7.5-1.1-13.9-0.9c-6.5,0.1-13.7,0.8-17.4,0.9l0.7-0.3c-4.8,1.1-9.9,2.2-15.1,5c-5.2,2.7-9.6,7.6-12,12.6
					c-2.5,5-3.6,10.1-4.3,14.9c-0.6,4.8-0.7,9.2-0.5,13.6c-0.2-0.7-0.8-1.1-0.6-5.1c-0.1,3.2-0.2,6.7-0.3,10.1c0,3.4,0,6.7,0,9.7
					c0,6-0.3,10.3-1,10.8c-0.1,3.6,0,7.5-0.2,11.3c-0.3,3.8-0.6,7.7-0.9,11.6c-0.7,8.6-1.7,17.7-1.3,26.1c0.2,16.9,1.9,32,3.3,41
					l-0.4-1.2c0.9,5.1,0.8,8.6,0.8,12.3c0,3.8-0.3,7.7,1.1,14.5c-0.1,0.8,0.1,1.8,0,1.6c1,3.3,2.7,7.6,5.9,11.5
					c3.2,4,7.8,6.9,12.2,8.6c1.1,0.4,2.2,0.8,3.3,1.2c1,0.3,2.1,0.5,3.1,0.8c2,0.5,4,1,5.8,1.5c3.7,0.9,7,1.2,9.4,1.5l0.5,1
					c0,0,1.5,0.3,3.8,0.5c2.3,0.2,5.3,0.5,8.3,0.8c3,0.4,6,0.3,8.2,0.5c2.2,0.1,3.7,0.2,3.7,0.2l-8.9-0.7c1.6-1.2,6.1-0.5,12.4,0.3
					c6.3,0.7,14.3,1.4,22.8,0.5c8,0.1,16-1.4,24.1-2.4c8.1-1.1,16.4-2,24.6-1.3c7.9-1.1-7,1.8,4.8,1.1c0.4,1.3-5.5,0.7-2.5,1.8
					c11.6-0.4,18.9,1.6,33.2,1l0.6,1c18.7-1.5,35.1,2.1,47.6,0.6c19.2-0.8,12.9,3.1,32.9,1.1l7.8,1.4c8.6,0.3,6.1-1.7,15.6-1
					c-0.6,0.9,12,0.7,6.4,1.5c21.5,1.4,43.6-1.8,71.9,0.6c6.1-1.5,20.4-0.9,25-2.3c0.8,0.7,28.6-0.6,12.6,1.4
					c-1.4,0.2-3.8,0.2-3.6-0.1l-1.9,1c16.2,1.5,29.3-1.7,45.3-1.8c-4.7-0.2-11,0-6.9-0.8l14.8-0.2l-3.1,0.9l22.1,0l-3.1-1
					c10.8,0.3,14.7,2,26.9,0.2c5.5-0.9-10.3-1.2,1.1-1.8c7.2,0.2,16.3,0.5,25.8,0.5c9.5-0.1,19.6-0.2,28.8-0.5
					c-1.8-1.1,3.2-1.3,8.3-1.8l0.6,1c19.5-2.3,7.3,1.7,26.6,0l-1.7,0.8l5-2.3c17.3-2.5,9.4,1.9,28.7-1.4c-7.6,0.4-3.6-2.1,5.8-2
					l-2.4,1c5.2-0.3,6.9-0.8,10.4-0.7c-3.1,0.6-1.6,1.5,6,1.1l-5.1,1.4c0,0,3.6-0.6,7.2-1c3.6-0.4,7.3-0.8,7.3-0.8
					c11.2,1.2,29,0.2,33.6,1.6c0,0,24.1,1.1,29.7-0.4c-4.9,0.9,8.4,1.4,4.6,2.5c3.2-0.5,9.6-1,16.1-1.3c6.3-0.3,12.9-0.5,16.5,0.1
					l-1.4,0.1c6.6,0.4,12.9,0.1,18.5,0.6c2.8,0.1,5.6,0.3,8.4,0.4c2.9,0.2,5.9,0.5,8.9,0.6c12,0.5,23.6,0.8,37.8-2.3
					c-0.8-0.5,2.5-1.3,5.5-2.9c3-1.3,5.5-3.3,3.4-2.9c6.7-3.9,12.4-10.5,14.9-17.4c0.5-1.7,1-3.4,1.4-5.1c0.4-1.7,0.4-3.3,0.6-4.9
					c0.4-3.4,0.2-5.6,0.3-8.1c0-9.6-0.3-17.2-2.9-21.7c-0.7-11.6,0.5-13.8,0.5-19.9l0.4,2.8c-1.3-21.7-1.8-27.9-2.5-44
					c-0.4-4-1.2-6.3-1.9-9.4c-0.7-3.2-1.3-6.8-0.9-14c0.8,4.6,0.7-1.2,0.8-6.6c0.1,3.5,0.4,4.5,1.1-2.6c-0.3-1-0.4-2.6-0.5-4
					c0.1-0.1,0.1-0.3,0.2-0.2c-0.4-9.2-0.6-7.6-0.7-3.3c-0.1-0.2-0.3,0.1-0.5,1.5c0.6-4.7,0.3-11.5-0.3-17.3
					c-0.6-5.8-1.7-10.5-1.2-11.3c-1.9-7.2-5.1-13.9-9.7-19.2c-2.3-2.7-4.9-4.8-7.8-6.8l-2.5-1.4c-0.8-0.4-1.7-0.6-2.5-0.9
					c-1.7-0.6-3.3-0.9-4.8-1.2c-6.3-1-11.9-0.7-17.3-0.4c-5.4,0.2-10.8,0.4-16.4,0.6c-2.5-0.8,2.7-1.4,9.3-1.7l-16,0.3
					c0.1-1.1,9.2-0.6,14.1-0.9c-19-1.7-39.2,1.7-61.5,0.2l-4.6,0.9l-1.3-0.1c0.1,0.5-4.9,1.1-8.2,1.3c-3.2-0.9,0.2-2.2-10.8-2.1
					c-8.7-0.8-24.8,0.7-36.2,1.3c6.2,0.1,4.2,0.7,1.5,1c-5.5,0.1-8.7-0.8-13-0.4l-0.5-1.3c2.2,1.2-14.4,1.4-16.5,2
					c-3.1-0.9,8.6-0.9,9.9-1.6c-22.1,0.3-11.1,0.2-33.2,0.5c-11.8,1.2,2.2,1.2-3.5,2.4c-10.4,0.5-20.6,1.6-32.6,1.1l3.8,1.1
					c-19.6,1.3-31.3,1.4-44.5,0.5c-36.4,3.1-56.6,5.5-66.3,7.3c-9.7,1.8-9,3-3.7,4c10.6,1.8,39.5,2,39.5,2
					c14.4,0.3,27.2,0.3,39.1,0.1c11.9-0.2,23-0.7,34.6-1.2c11.5-0.6,23.4-1.2,36.6-1.9C621.3,81.8,636,81.3,653.1,81z"/>
			</g>
		</g>
	</g>
</g>
</svg>
